<svg xmlns="http://www.w3.org/2000/svg" width="444" height="304" fill="none"><g opacity=".7"><ellipse cx="173.5" cy="287.5" fill="url(#a)" rx="163.6" ry="14"/><ellipse cx="171.8" cy="288.4" fill="url(#b)" rx="171.8" ry="15.6"/></g><ellipse cx="247.5" cy="273.9" fill="url(#c)" rx="111.8" ry="26.8"/><path fill="url(#d)" d="M111.8 262.8v-.1a3.8 3.8 0 0 1 0-1l9-152.8h253.3l9 152.8a3.9 3.9 0 0 1 0 1v.1c-1.3 12.3-61.5 22.3-135.6 22.3s-134.3-10-135.7-22.3Z"/><ellipse cx="247.5" cy="108.9" fill="#EDEDED" rx="126.6" ry="7.4"/><path stroke="#67B279" d="M119.2 141.8c-40.9-6.9-67.6-8-69.3-1.8-3 11.4 78.4 43.2 181.8 71 103.5 27.7 189.8 41 192.9 29.5 1.5-5.6-13.4-15-44.6-28"/><path stroke="#67B279" stroke-width="2" d="M119.9 126.9c-12.6-1.1-20.2-.4-21.1 2.7-3 9.8 65.8 39.5 153.7 66.4 87.9 27 161.6 40.8 164.6 31 1.4-4.8-11-13.4-37.4-25.6" opacity=".2"/><path stroke="#67B279" stroke-width="2" d="M376.7 149.5c39.2-13.8 63.1-25.8 61.5-32.1-2.8-11.5-89.4.3-193.3 26.2-104 26-185.9 56.3-183 67.8 1.4 5.6 19 6.6 52.6 2.9"/><path stroke="url(#e)" stroke-width="2" d="M378 192.4c39.9-9.5 64.7-18.7 63.8-25-1.6-11.5-87.8-8.8-192.5 6-104.8 14.7-188.4 36-186.7 47.4.7 5.6 17.9 8.3 51.3 8.1"/><ellipse cx="119.3" cy="6.7" stroke="#67B279" opacity=".6" rx="119.3" ry="6.7" transform="rotate(-4 1243.2 -2042)"/><ellipse cx="117.1" cy="3.7" stroke="#67B279" opacity=".1" rx="117.1" ry="3.7" transform="rotate(7 -396.6 1084.6)"/><g opacity=".4"><path fill="url(#f)" d="M247.3 239.4c-6.4 0-12.7 2.6-17.5 8a1.7 1.7 0 0 0 0 2.2c.3.3.6.5 1 .5s.7-.2 1-.5a20.5 20.5 0 0 1 31 0 1.3 1.3 0 0 0 2 0 1.7 1.7 0 0 0 0-2.2c-4.8-5.4-11.2-8-17.5-8Z"/><path fill="url(#g)" d="M247.8 248.1a15 15 0 0 0-11.3 5.3c-.5.6-.5 1.5 0 2.1.3.3.6.4 1 .4.2 0 .6-.1.8-.4 2.5-2.9 5.9-4.4 9.5-4.4 3.5 0 6.9 1.5 9.4 4.4.5.6 1.3.6 1.8 0s.5-1.5 0-2a15 15 0 0 0-11.2-5.4Z"/><path fill="url(#h)" d="M247.8 256c-2 0-4 .7-5.5 2.1a1 1 0 0 0 0 1.4c.2.2.4.3.7.3.3 0 .5 0 .7-.3a5.9 5.9 0 0 1 8 0 1 1 0 0 0 1.6 0 1 1 0 0 0 0-1.4 8 8 0 0 0-5.5-2.2Z"/></g><path fill="#67B279" d="M248.4 0c-7.6 0-16.7 1.8-24.2 5.7 0 8.5 0 29.6 24.2 44 24.3-14.4 24.2-35.5 24.2-44C265 1.7 256 0 248.4 0Z"/><path fill="#67B279" d="M248.4 49.8c-24.3-14.5-24.2-35.6-24.2-44 7.5-4 16.6-5.8 24.2-5.8v49.8Z"/><path fill="#fff" d="m247.5 33.2 14.6-19.8c-1-.8-2-.2-2.5.2l-12.2 12.8-4.6-5.6c-2.2-2.5-5.2-.6-5.9 0l10.6 12.4Z"/><defs><linearGradient id="a" x1="9.9" x2="337.1" y1="301.5" y2="301.5" gradientUnits="userSpaceOnUse"><stop stop-color="#fff"/><stop offset="1" stop-color="#AFAFAF"/></linearGradient><linearGradient id="b" x1="0" x2="343.7" y1="304" y2="304" gradientUnits="userSpaceOnUse"><stop stop-opacity="0"/><stop offset="1" stop-opacity=".2"/></linearGradient><linearGradient id="c" x1="145.1" x2="359.3" y1="311" y2="311" gradientUnits="userSpaceOnUse"><stop stop-color="#878787"/><stop offset=".3" stop-color="#ACACAC"/><stop offset="1" stop-color="#E7E7E7"/></linearGradient><linearGradient id="d" x1="69.1" x2="305.9" y1="283.7" y2="400.5" gradientUnits="userSpaceOnUse"><stop stop-color="#B3B3B3"/><stop offset=".3" stop-color="#E5E5E5"/><stop offset=".6" stop-color="#EEE"/><stop offset="1" stop-color="#fff"/></linearGradient><linearGradient id="e" x1="59.6" x2="64.7" y1="200" y2="236.4" gradientUnits="userSpaceOnUse"><stop stop-color="#DDF6FF"/><stop offset="1" stop-color="#67B279"/></linearGradient><linearGradient id="f" x1="265.2" x2="229.3" y1="239.4" y2="239.4" gradientUnits="userSpaceOnUse"><stop stop-color="#999"/><stop offset="1" stop-color="#636363"/></linearGradient><linearGradient id="g" x1="259.4" x2="236.1" y1="248.1" y2="248.1" gradientUnits="userSpaceOnUse"><stop stop-color="#999"/><stop offset="1" stop-color="#636363"/></linearGradient><linearGradient id="h" x1="253.6" x2="241.9" y1="255.9" y2="255.9" gradientUnits="userSpaceOnUse"><stop stop-color="#999"/><stop offset="1" stop-color="#636363"/></linearGradient></defs></svg>